<?xml version="1.0" standalone="no"?>
<!DOCTYPE svg PUBLIC "-//W3C//DTD SVG 20010904//EN"
 "http://www.w3.org/TR/2001/REC-SVG-20010904/DTD/svg10.dtd">
<svg version="1.0" xmlns="http://www.w3.org/2000/svg"
 width="1024.000000pt" height="1024.000000pt" viewBox="0 0 1024.000000 1024.000000"
 preserveAspectRatio="xMidYMid meet">

<g transform="translate(0.000000,1024.000000) scale(0.100000,-0.100000)"
fill="#000000" stroke="none">
<path d="M1 9808 c1 -238 4 -423 6 -410 2 12 9 22 15 22 5 0 7 8 4 17 -4 10
-4 14 0 10 9 -9 33 23 34 47 0 11 5 16 14 13 10 -4 12 0 9 14 -3 10 -1 19 5
19 5 0 15 14 22 30 7 17 19 30 28 30 8 0 12 3 9 6 -3 4 0 16 8 28 8 11 15 32
15 46 0 18 3 21 9 11 7 -10 11 -6 15 15 7 31 38 74 53 74 8 0 42 37 79 88 6 8
16 12 23 8 6 -4 10 -4 9 1 -4 16 14 53 23 48 8 -5 13 7 11 26 -1 4 12 12 28
19 17 7 30 18 30 25 0 7 14 24 31 38 17 14 30 28 29 31 0 4 6 14 15 22 8 9 15
13 15 10 0 -3 8 2 18 12 12 11 14 20 8 24 -7 5 -6 8 2 8 7 0 10 5 6 12 -4 7
-3 8 4 4 6 -4 20 2 32 14 11 11 22 20 25 20 3 0 11 5 18 10 7 6 21 17 32 25
18 13 -24 14 -332 15 l-353 0 1 -432z"/>
<path d="M1626 10183 c14 -32 41 -96 59 -143 18 -47 51 -121 72 -165 22 -44
64 -134 94 -200 51 -113 145 -301 299 -600 37 -71 103 -188 147 -260 l79 -130
44 2 c179 7 185 6 226 -15 46 -24 85 -65 101 -108 60 -156 73 -199 73 -239 0
-44 -3 -49 -82 -128 -140 -141 -177 -192 -250 -345 -37 -78 -91 -179 -120
-225 l-53 -82 0 -85 c0 -153 22 -177 75 -82 18 31 51 82 74 112 169 226 178
243 170 314 -4 35 -2 66 5 85 7 16 85 98 174 182 318 303 296 284 327 274 31
-10 24 -30 -30 -101 -53 -69 -61 -90 -32 -81 9 3 40 10 67 17 28 7 56 14 62
16 7 2 24 27 36 56 34 76 179 248 362 431 156 155 265 244 417 342 96 62 104
77 77 147 -41 106 -37 103 -112 106 -64 3 -70 5 -105 41 -20 21 -53 69 -72
106 -45 85 -89 137 -154 179 -47 31 -102 85 -428 419 -107 111 -117 118 -149
115 -31 -3 -35 -7 -42 -43 -12 -56 -20 -69 -51 -80 -38 -13 -57 -4 -252 118
l-171 107 -481 0 -482 0 26 -57z m609 -457 c21 -27 67 -79 102 -115 34 -36 70
-81 80 -98 10 -18 21 -33 25 -33 5 0 8 -4 8 -10 0 -5 8 -18 18 -29 51 -55 72
-80 72 -88 0 -4 14 -21 30 -37 33 -32 70 -102 70 -132 0 -10 -15 -59 -34 -109
-25 -69 -37 -90 -52 -90 -10 0 -23 9 -29 20 -6 11 -22 38 -36 60 -47 73 -127
219 -164 300 -45 97 -154 316 -165 330 -10 13 -90 193 -90 203 0 10 116 -111
165 -172z m1029 -756 c37 -14 50 -44 33 -76 -15 -29 -130 -166 -198 -236 -52
-54 -75 -59 -115 -25 -51 44 -30 145 48 227 50 54 102 90 150 105 54 17 52 17
82 5z m293 -102 c33 -27 14 -60 -93 -169 -59 -59 -117 -110 -131 -114 -37 -9
-73 18 -73 56 0 46 24 94 77 150 81 86 171 118 220 77z"/>
<path d="M8034 10177 c-105 -81 -222 -178 -359 -301 -129 -116 -159 -136 -201
-136 -44 0 -65 29 -84 118 -15 73 -17 77 -40 73 -14 -2 -38 -4 -55 -5 -29 -1
-30 0 -26 39 9 94 8 100 -19 103 -19 2 -53 -19 -131 -82 -117 -93 -138 -106
-167 -106 -36 0 -44 23 -27 75 13 36 14 50 4 61 -25 30 -57 18 -197 -75 -148
-98 -167 -100 -261 -26 -117 92 -253 129 -390 106 -91 -15 -198 -59 -263 -106
-84 -61 -249 -284 -298 -402 -42 -99 -100 -298 -100 -342 0 -64 35 -177 86
-279 61 -120 55 -139 -26 -71 -39 33 -58 42 -87 42 -52 0 -78 -34 -97 -130
-70 -340 -279 -1168 -304 -1203 -30 -40 -295 -263 -447 -374 -175 -128 -289
-198 -581 -351 -479 -253 -663 -373 -1049 -684 -58 -46 -428 -363 -445 -381
-3 -3 -48 -43 -100 -90 -201 -179 -485 -458 -476 -468 8 -8 144 110 489 426
635 581 1053 862 1783 1202 233 108 677 327 884 435 74 39 137 65 155 65 47 0
242 -140 546 -395 53 -44 132 -109 175 -145 75 -61 153 -128 375 -322 52 -45
162 -144 244 -218 81 -74 167 -151 191 -171 24 -20 103 -93 176 -162 73 -68
194 -178 268 -243 74 -65 167 -148 205 -184 145 -138 252 -234 301 -269 29
-20 81 -57 115 -83 35 -26 194 -143 353 -259 454 -332 569 -423 701 -557 90
-90 168 -189 156 -196 -5 -3 -11 1 -15 9 -3 8 -10 15 -16 15 -6 0 -43 24 -83
53 -40 29 -90 64 -112 78 -22 14 -80 56 -130 93 -87 66 -378 264 -551 376 -47
30 -162 107 -257 171 -95 64 -212 142 -262 174 -178 114 -297 211 -515 419
-93 89 -293 273 -381 351 -31 28 -108 97 -171 155 -102 95 -357 318 -626 548
-136 116 -371 301 -515 404 -84 60 -129 100 -145 128 -13 22 -30 40 -38 40 -7
0 -27 -18 -44 -39 -25 -30 -64 -55 -176 -110 -79 -39 -146 -71 -149 -71 -16 0
-864 -430 -984 -500 -174 -99 -198 -115 -466 -293 -242 -161 -357 -246 -470
-348 -100 -89 -350 -325 -425 -399 -67 -68 -251 -242 -345 -329 -602 -552
-915 -889 -915 -983 0 -16 11 -56 25 -91 14 -34 34 -96 45 -137 48 -192 92
-336 112 -373 24 -43 79 -87 109 -87 22 0 79 47 79 65 0 7 12 27 26 44 40 47
94 38 94 -17 0 -13 -22 -69 -48 -125 -90 -187 -117 -300 -116 -487 0 -79 5
-154 13 -180 23 -81 85 -194 137 -247 80 -84 106 -65 63 47 -29 77 -35 173
-16 241 29 98 69 96 146 -6 98 -129 175 -185 256 -185 43 0 51 4 98 52 32 32
70 87 96 138 24 46 54 94 67 107 30 29 74 30 106 1 13 -13 54 -49 90 -80 76
-67 88 -97 88 -230 0 -79 2 -87 35 -138 19 -30 35 -67 35 -83 0 -43 -30 -218
-41 -240 -14 -25 -69 -47 -120 -47 -59 0 -107 -27 -140 -78 -32 -51 -148 -321
-214 -502 -26 -69 -69 -170 -97 -225 -34 -68 -60 -137 -79 -217 -76 -307 -231
-650 -410 -905 l-40 -58 582 -3 c320 -1 584 0 587 2 10 11 -94 129 -162 186
-73 60 -86 76 -86 107 0 8 53 68 118 132 151 150 330 354 338 388 9 33 -21 91
-92 183 -95 123 -167 232 -193 293 -23 55 -49 104 -114 212 -44 75 -57 125
-32 127 5 0 37 -55 72 -123 34 -68 81 -144 103 -169 38 -42 66 -81 135 -190
64 -101 176 -240 194 -240 10 0 38 14 62 32 79 56 300 262 304 283 13 57 37
186 60 324 14 85 30 162 36 172 24 45 108 28 145 -30 16 -24 16 -33 -6 -166
-37 -225 -68 -364 -87 -395 -10 -16 -98 -112 -196 -214 -101 -106 -177 -194
-177 -204 0 -11 25 -40 59 -68 33 -27 67 -63 77 -81 17 -30 17 -33 -1 -73 -10
-22 -28 -54 -41 -71 -31 -42 -233 -258 -324 -346 l-75 -73 639 0 639 0 -64 51
c-124 99 -101 101 84 8 l118 -59 2960 0 2959 0 0 40 c0 24 -5 42 -12 44 -7 2
-76 24 -153 50 -160 52 -273 82 -500 131 -203 45 -220 51 -245 82 -45 57 -2
153 67 153 84 0 538 -134 784 -230 27 -11 52 -20 54 -20 3 0 5 34 5 75 l0 74
-45 31 c-60 41 -107 60 -150 60 -65 0 -98 22 -158 109 -51 72 -95 111 -127
111 -6 0 -16 -11 -22 -25 -15 -33 -67 -65 -104 -65 -32 0 -97 31 -131 62 -11
11 -35 46 -53 79 -17 32 -37 59 -45 59 -7 0 -27 -12 -44 -26 -66 -55 -118 -47
-215 34 -35 29 -63 43 -94 48 -56 8 -108 53 -122 102 -5 21 -19 109 -30 196
-24 181 -38 223 -86 265 -36 32 -64 42 -186 65 -96 18 -120 34 -151 100 -30
63 -64 92 -125 108 -58 14 -106 62 -120 121 -7 25 -9 54 -5 64 19 55 59 65
147 38 59 -18 97 -13 182 25 33 15 102 40 153 54 115 33 128 42 193 125 28 36
96 109 149 162 105 103 119 129 119 224 0 69 26 108 87 131 59 22 99 48 116
77 9 16 12 107 12 352 0 182 4 357 9 390 7 55 5 69 -28 169 -21 60 -50 137
-65 170 -20 43 -32 89 -39 156 -13 125 -39 194 -106 285 -59 81 -72 117 -106
285 -12 58 -35 137 -51 175 -84 195 -24 270 131 165 74 -50 242 -131 319 -154
71 -21 145 -21 165 0 21 21 14 29 -47 60 -141 72 -252 215 -410 531 -87 173
-101 216 -122 373 -20 151 -45 232 -96 310 -58 89 -66 118 -74 261 -12 224
-43 424 -85 543 -22 64 -25 92 -11 100 16 10 57 -32 117 -121 32 -48 86 -126
120 -173 33 -47 102 -154 153 -237 51 -84 99 -153 107 -153 57 0 26 127 -86
348 -90 178 -98 203 -76 221 28 23 64 3 169 -97 164 -156 184 -172 217 -172
25 0 30 4 30 25 0 26 -49 94 -252 348 -65 82 -154 201 -197 265 -94 141 -201
340 -201 374 0 56 49 62 148 19 141 -61 240 -84 267 -61 27 23 16 41 -41 66
-84 37 -165 96 -244 177 -94 96 -141 169 -253 394 -51 103 -121 232 -155 286
-110 174 -110 175 -52 242 47 54 64 86 155 291 150 336 295 778 384 1172 l28
122 -496 -1 -496 -1 -81 -61z m-1950 -448 c14 -11 26 -29 26 -39 0 -11 -39
-51 -95 -99 -162 -139 -186 -150 -230 -106 -51 50 -20 156 60 209 82 54 194
70 239 35z m1035 -279 c80 -40 120 -165 48 -146 -38 9 -126 83 -133 111 -14
56 18 70 85 35z m-1081 -116 c2 -11 -6 -28 -17 -38 -17 -15 -23 -16 -36 -6
-30 25 -9 74 30 68 11 -2 21 -12 23 -24z m-252 -180 c12 -27 12 -39 4 -48 -8
-8 -16 -5 -31 13 -19 23 -25 52 -12 64 13 14 24 6 39 -29z m2271 -219 c12 -8
26 -27 29 -42 6 -22 1 -32 -25 -55 -26 -23 -40 -28 -84 -28 -66 0 -97 24 -97
74 0 32 18 56 50 69 23 10 101 -2 127 -18z m370 -267 c22 -18 14 -36 -27 -65
-22 -15 -63 -45 -91 -65 -76 -56 -129 -51 -129 12 0 40 87 114 154 131 35 8
74 3 93 -13z m-562 -624 c96 -95 146 -156 204 -243 114 -173 145 -241 149
-326 5 -128 -22 -123 -104 18 -26 45 -96 155 -155 244 -60 89 -125 195 -145
235 -20 40 -49 91 -64 113 -36 52 -46 85 -27 85 8 0 72 -57 142 -126z m-3544
-1915 c44 -17 92 -41 107 -54 l27 -23 -30 -9 c-16 -4 -118 -8 -226 -8 -152 0
-200 3 -213 14 -23 20 -6 37 79 78 91 44 147 44 256 2z m444 -165 c63 -18 100
-46 92 -68 -14 -36 -223 -95 -412 -117 -152 -18 -522 -6 -650 21 -103 22 -186
53 -206 76 -25 31 20 74 105 99 62 18 1002 9 1071 -11z m695 -174 c71 -36 152
-170 224 -368 31 -86 32 -98 9 -107 -18 -6 -372 -34 -448 -35 -46 0 -55 -9
-315 -306 -175 -200 -210 -246 -210 -278 1 -43 42 -110 111 -182 56 -57 83
-77 123 -90 79 -26 177 -80 263 -146 166 -127 193 -146 260 -178 94 -46 167
-52 225 -17 48 28 51 31 175 143 92 85 142 121 214 159 73 38 106 71 139 141
63 133 74 198 44 255 -8 17 -61 81 -117 143 -137 151 -151 167 -193 226 -41
57 -40 58 62 36 86 -18 195 -74 354 -181 95 -64 326 -293 387 -384 21 -31 43
-59 48 -63 6 -4 6 -8 1 -8 -4 0 -1 -11 8 -25 12 -19 13 -25 4 -26 -10 0 -10
-2 0 -6 6 -2 10 -9 6 -14 -3 -5 -2 -9 3 -9 13 0 13 -94 0 -102 -8 -5 -6 -9 6
-14 24 -9 21 -19 -8 -32 -42 -20 -58 -13 -100 41 -50 64 -71 68 -159 28 -102
-46 -126 -66 -126 -107 0 -48 29 -74 82 -74 l41 0 -24 -26 c-13 -14 -41 -35
-61 -45 -21 -11 -60 -39 -87 -63 -61 -54 -35 -50 -516 -71 -357 -16 -730 -43
-940 -69 -119 -15 -112 -16 -205 37 -25 14 -131 51 -235 81 -312 90 -369 114
-381 163 -15 57 40 81 102 42 21 -12 41 -18 54 -14 23 7 44 41 37 59 -9 23
-186 108 -211 102 -12 -3 -37 -26 -55 -51 -46 -64 -63 -71 -114 -46 -59 29
-186 130 -206 164 -16 28 -16 29 20 60 20 18 72 52 115 76 237 132 392 230
574 365 226 166 495 422 618 586 92 125 143 184 180 214 62 49 146 55 222 16z
m272 -565 c9 -4 29 -28 44 -53 15 -26 84 -105 153 -177 212 -219 214 -221 207
-243 -9 -27 -32 -35 -59 -20 -46 24 -281 210 -322 254 -42 45 -54 46 -212 18
-221 -39 -211 -35 -315 -127 -151 -133 -282 -243 -305 -255 -12 -7 -30 -12
-40 -12 -21 0 -63 40 -82 78 -16 30 -15 31 138 207 67 77 158 182 203 233 44
50 90 94 101 97 59 14 457 14 489 0z m-2236 -707 c34 -24 103 -71 153 -106 50
-34 98 -74 108 -88 16 -25 16 -28 -5 -68 -12 -22 -41 -62 -63 -88 -45 -53 -75
-61 -120 -30 -54 37 -228 183 -248 208 -43 55 -39 123 11 179 43 50 84 48 164
-7z m3781 -153 c26 -19 47 -87 38 -124 -9 -35 -64 -91 -90 -91 -21 0 -103 76
-123 114 -15 30 4 60 57 90 53 29 87 33 118 11z m-3302 -158 c98 -49 112 -74
77 -132 -10 -16 -33 -57 -51 -90 -42 -77 -76 -108 -108 -100 -39 9 -103 56
-119 86 -28 54 -18 100 43 197 48 76 72 82 158 39z m3006 -7 c16 0 49 -63 49
-93 0 -16 -5 -37 -10 -48 -6 -10 -81 -54 -168 -98 -86 -43 -175 -89 -197 -101
-69 -39 -81 -41 -110 -19 -28 23 -75 108 -75 137 0 31 28 48 191 118 189 82
280 115 297 109 8 -3 18 -5 23 -5z m-3472 -155 c118 -71 166 -121 154 -160 -6
-21 -67 -102 -93 -122 -35 -28 -63 -10 -134 87 -78 106 -92 157 -55 204 28 35
59 33 128 -9z m843 -21 c302 -89 328 -97 348 -119 l21 -23 -27 -68 c-36 -94
-60 -131 -88 -138 -29 -7 -83 3 -286 51 -136 32 -159 41 -187 69 -25 24 -33
41 -33 66 0 88 60 198 109 198 11 0 76 -16 143 -36z m1884 -113 c128 -1 145
-12 152 -92 7 -94 -5 -98 -411 -129 -212 -17 -281 -19 -292 -10 -16 13 -35 94
-35 149 0 74 3 75 232 81 112 3 214 5 228 4 14 -1 71 -3 126 -3z m-703 -31 c9
-14 13 -37 10 -68 -8 -92 -14 -112 -36 -127 -15 -9 -125 -28 -298 -49 -150
-20 -294 -38 -319 -42 -37 -5 -50 -2 -70 14 -21 17 -25 29 -28 93 -4 97 16
139 73 156 54 17 348 40 517 42 127 1 138 0 151 -19z m-2214 -115 c80 -86 93
-107 89 -146 -4 -39 -45 -74 -76 -65 -43 14 -140 205 -128 252 11 44 48 31
115 -41z m4001 28 c16 -20 20 -36 16 -58 -9 -43 -51 -102 -86 -120 -27 -14
-33 -14 -59 0 -61 31 -79 94 -38 133 30 28 108 72 129 72 9 0 26 -12 38 -27z
m-3394 -60 c112 -64 154 -100 154 -130 0 -20 -97 -160 -128 -184 -16 -12 -33
-17 -46 -13 -29 9 -201 139 -226 171 -36 46 -19 137 37 196 42 43 77 37 209
-40z m3078 -126 c30 -30 42 -96 24 -134 -9 -20 -61 -57 -179 -128 -91 -55
-184 -113 -207 -128 -28 -20 -47 -27 -61 -22 -44 14 -118 146 -107 191 7 28 8
29 211 122 201 93 267 121 283 122 7 0 23 -11 36 -23z m-2533 -148 c144 -51
233 -89 248 -104 23 -22 24 -27 13 -62 -20 -63 -85 -175 -115 -197 -24 -18
-32 -19 -72 -8 -25 7 -103 36 -173 65 -70 30 -152 62 -182 72 -106 34 -120 70
-74 195 28 75 68 120 108 120 13 0 124 -36 247 -81z m-859 8 c40 -35 120 -101
178 -147 58 -47 132 -107 165 -135 33 -28 95 -77 138 -109 79 -59 95 -84 83
-131 -8 -33 -41 -65 -65 -65 -39 0 -412 286 -565 432 -100 97 -106 105 -106
142 0 50 23 76 66 76 27 0 48 -13 106 -63z m2448 -107 c91 -5 185 -13 210 -16
56 -9 100 -49 100 -92 0 -49 -18 -56 -128 -47 -53 4 -204 9 -335 11 -217 3
-240 5 -252 21 -23 31 -28 82 -10 109 15 23 20 24 133 24 64 0 191 -5 282 -10z
m-524 -25 c19 -28 12 -75 -14 -99 -11 -9 -70 -23 -152 -36 -184 -28 -328 -55
-433 -82 -80 -20 -89 -21 -103 -6 -33 33 -8 158 37 186 12 8 91 22 177 32 209
26 219 26 354 28 115 2 118 1 134 -23z m344 -246 c199 -23 349 -72 445 -144
l35 -27 -39 -38 c-47 -46 -51 -64 -32 -153 12 -56 12 -76 2 -110 -6 -23 -13
-52 -14 -64 -4 -30 -53 -80 -163 -164 -96 -74 -129 -84 -143 -45 -5 12 -25
116 -45 229 -20 121 -42 216 -51 231 -9 14 -42 38 -72 52 -51 25 -60 26 -146
20 -113 -8 -201 -28 -227 -51 -20 -18 -39 -89 -65 -245 -51 -312 -78 -347
-210 -269 -126 75 -254 175 -261 205 -4 16 4 64 21 125 15 54 25 105 22 113
-3 8 -18 23 -32 32 -24 16 -27 16 -43 1 -9 -9 -37 -58 -62 -109 -41 -86 -47
-93 -77 -96 -48 -5 -98 43 -97 94 0 40 42 146 78 198 36 53 267 144 472 185
245 49 461 59 704 30z m-1419 -199 c63 -37 69 -44 69 -73 0 -51 -44 -107 -84
-107 -24 0 -143 77 -156 101 -16 30 -11 75 12 104 18 23 26 26 56 21 19 -3 65
-24 103 -46z m2045 -55 c10 -15 13 -32 9 -46 l-8 -23 -18 23 c-20 24 -26 71
-9 71 5 0 17 -11 26 -25z m-765 -73 l29 -32 3 -153 c3 -230 1 -291 -12 -316
-18 -33 -134 -84 -204 -89 -66 -5 -91 10 -102 59 -8 34 24 494 36 526 11 30
58 43 148 40 69 -2 75 -4 102 -35z m-801 -750 c18 -14 24 -32 28 -75 7 -84 5
-85 -363 -281 -110 -59 -140 -85 -130 -115 3 -12 17 -28 29 -36 27 -18 62 -8
136 35 25 15 123 66 218 114 95 49 186 101 202 116 28 26 30 33 29 93 -2 68 4
87 25 87 13 0 157 -97 209 -141 l29 -24 -22 -28 c-12 -15 -71 -51 -138 -84
-64 -31 -160 -82 -212 -113 -52 -31 -140 -83 -195 -115 -55 -32 -135 -82 -178
-112 -43 -29 -85 -53 -92 -53 -27 0 -311 264 -323 299 -12 41 -3 69 32 97 40
32 655 353 677 353 9 1 27 -7 39 -17z m-860 -543 c29 -23 85 -71 124 -108 134
-126 171 -159 256 -230 156 -130 173 -131 363 -22 119 68 147 80 200 85 34 4
121 14 192 23 120 14 136 14 210 -1 88 -18 205 -71 205 -93 0 -23 -28 -26 -79
-9 -102 33 -98 35 -383 -194 -106 -86 -235 -189 -286 -229 -98 -77 -112 -94
-112 -135 0 -36 -10 -56 -27 -56 -21 0 -512 329 -524 351 -14 27 -11 54 17
167 24 96 25 104 10 127 -18 27 -57 33 -74 13 -6 -7 -23 -44 -38 -83 -32 -83
-41 -95 -65 -95 -26 0 -178 138 -186 168 -10 41 69 305 103 343 24 27 35 24
94 -22z m1797 -492 c103 -86 241 -189 368 -274 120 -80 121 -82 96 -130 -16
-32 -91 -113 -105 -113 -23 0 -94 38 -200 108 -144 94 -238 142 -278 142 -43
0 -77 37 -88 99 -13 68 -13 142 0 175 11 30 65 66 97 66 13 0 59 -31 110 -73z
m-359 33 c44 -27 55 -61 48 -143 -6 -82 -19 -104 -93 -160 -168 -128 -393
-305 -430 -338 -24 -22 -51 -39 -61 -39 -42 0 -106 106 -119 195 -6 48 -7 48
179 180 65 46 172 128 238 182 144 117 179 143 194 143 6 0 26 -9 44 -20z"/>
<path d="M9886 10226 c3 -8 12 -12 20 -9 9 3 14 -1 14 -13 0 -9 3 -15 6 -11 4
3 26 -17 49 -46 23 -29 53 -61 66 -73 36 -31 79 -83 79 -94 0 -5 7 -10 15 -10
8 0 14 -3 14 -7 -1 -5 -1 -15 1 -23 1 -11 4 -9 10 5 8 19 9 19 9 -2 1 -13 6
-23 11 -23 6 0 10 -6 10 -13 0 -8 11 -27 25 -43 l25 -29 0 203 0 202 -180 0
c-152 0 -179 -2 -174 -14z"/>
<path d="M3084 7771 c-16 -10 -36 -27 -44 -37 -8 -11 -49 -60 -91 -111 -162
-193 -475 -626 -496 -685 -7 -20 -14 -74 -15 -120 -3 -71 -1 -83 14 -86 26 -5
47 22 258 335 106 158 223 329 260 378 129 175 170 246 170 293 0 44 -20 55
-56 33z"/>
<path d="M4106 7381 c-178 -175 -404 -374 -679 -596 -412 -332 -503 -407 -715
-583 -262 -218 -582 -525 -582 -558 0 -27 25 -37 53 -22 12 6 110 88 217 182
394 346 500 434 840 690 118 89 251 189 295 222 44 34 127 96 185 139 274 204
586 477 610 534 24 59 -7 141 -53 141 -13 0 -77 -56 -171 -149z"/>
<path d="M2050 6510 c-15 -37 -8 -116 15 -161 24 -46 39 -24 43 64 6 111 -29
168 -58 97z"/>
<path d="M1815 1838 c-42 -24 -48 -39 -57 -136 -4 -54 -9 -110 -10 -127 0 -16
16 -79 36 -140 21 -60 40 -134 43 -163 6 -52 5 -53 -40 -96 -25 -24 -74 -58
-109 -75 -102 -50 -138 -30 -179 101 -13 39 -39 104 -60 145 l-37 74 19 56
c23 68 23 60 -2 74 -24 13 -98 -10 -120 -38 -14 -16 -14 -16 70 -81 27 -20 30
-28 29 -80 0 -31 5 -86 11 -122 6 -36 11 -87 11 -114 0 -46 -3 -52 -53 -103
-69 -68 -96 -70 -162 -13 -25 22 -52 40 -60 40 -19 0 -45 -26 -105 -105 -75
-101 -95 -115 -156 -115 -57 0 -88 -20 -65 -43 9 -9 22 -7 59 7 55 21 188 48
248 50 46 1 68 -14 115 -78 38 -52 39 -98 2 -124 -16 -11 -93 -46 -173 -77
-80 -32 -219 -93 -309 -136 -90 -44 -172 -79 -181 -79 -24 0 -162 92 -196 129
-15 17 -37 31 -49 31 -12 0 -44 -20 -72 -44 -29 -24 -63 -46 -76 -50 -14 -3
-58 4 -103 18 l-79 23 -3 -39 c-2 -22 1 -52 6 -68 6 -16 6 -33 1 -41 -5 -8 -9
-48 -9 -89 l0 -75 43 3 c35 3 59 -4 116 -32 39 -20 89 -52 110 -71 l38 -35
540 0 540 0 90 152 c50 84 101 173 113 197 12 24 40 70 61 102 96 140 193 405
225 611 10 67 25 122 43 158 48 95 185 513 178 542 -6 22 -20 29 -106 57 -105
33 -144 37 -176 19z m-281 -1180 c50 -192 55 -235 30 -245 -27 -10 -41 17 -93
174 -57 170 -67 247 -36 270 34 24 51 -11 99 -199z m-1192 -421 c122 -63 138
-87 56 -87 -69 0 -182 25 -222 48 -37 21 -47 60 -20 79 34 25 81 14 186 -40z"/>
<path d="M1113 1424 c-19 -10 -33 -24 -33 -35 0 -19 47 -62 60 -54 13 8 32 74
26 90 -7 19 -13 18 -53 -1z"/>
<path d="M536 1111 c-19 -21 -8 -35 21 -24 18 7 33 22 33 36 0 15 -37 7 -54
-12z"/>
<path d="M2938 425 c-101 -103 -189 -198 -195 -210 -16 -30 -6 -58 40 -107 40
-44 49 -45 102 -15 38 22 45 31 78 107 9 19 63 86 121 148 75 80 106 121 106
138 0 34 -23 85 -48 108 -21 18 -22 17 -204 -169z"/>
</g>
</svg>
